<svg xmlns="http://www.w3.org/2000/svg" xmlns:xlink="http://www.w3.org/1999/xlink" version="1.1" width="1000" height="1000" viewBox="0 0 1000 1000" xml:space="preserve">
<desc>Created with Fabric.js 3.5.0</desc>
<defs>
</defs>
<rect x="0" y="0" width="100%" height="100%" fill="none"/>
<g transform="matrix(0 -0.9091 0.9091 0 500.0045 499.9955)" id="193095">
<g style="" vector-effect="non-scaling-stroke">
		<g transform="matrix(1 0 0 1 -450 -450)">
<rect style="stroke: none; stroke-width: 1; stroke-dasharray: none; stroke-linecap: butt; stroke-dashoffset: 0; stroke-linejoin: miter; stroke-miterlimit: 4; is-custom-font: none; font-file-url: none; fill: none; fill-rule: nonzero; opacity: 1;" x="-50" y="-50" rx="0" ry="0" width="100" height="100"/>
</g>
		<g transform="matrix(0 14.205 -14.205 0 38.1609 -0.2091)" id="SVGRepo_iconCarrier">
<path style="stroke: none; stroke-width: 1; stroke-dasharray: none; stroke-linecap: butt; stroke-dashoffset: 0; stroke-linejoin: miter; stroke-miterlimit: 4; is-custom-font: none; font-file-url: none; fill: rgb(29,29,27); fill-rule: nonzero; opacity: 1;" vector-effect="non-scaling-stroke" transform=" translate(-31.9843, -31.9969)" d="m 8.05 35.76 a 71.47 71.47 0 0 1 4.75 -15.67 c 3.59 -8.19 8.8 -16.18 9.61 -16.51 s 6.93 -0.32 7.06 0 s 0.49 8.86 0.49 8.86 a 11.79 11.79 0 0 1 3.57 0.06 s -0.18 -8.94 0.19 -9.13 s 8.05 -0.35 8.56 0 s 6.65 13.68 6.65 13.68 s 0.92 -1.2 1.54 -1.28 s 3.68 -0.26 3.88 0.05 s 2.7 6.76 2.9 7.5 s -0.17 10.2 -0.25 10.68 s -1.54 1.22 -1.54 1.22 a 15.38 15.38 0 0 1 -0.94 9.21 c -2.1 4.48 -4 5.89 -4 5.89 a 12.56 12.56 0 0 1 -0.07 2.44 c -0.18 0.56 -7.28 8 -18.84 8.07 s -18.58 -6.5 -18.53 -7.26 a 7.68 7.68 0 0 1 0.71 -2.07 a 12.19 12.19 0 0 1 -3.2 -3.94 l -1.29 -2.56 a 1.53 1.53 0 0 1 -1.64 -1.15 a 34.42 34.42 0 0 1 -1 -7.67 c 0.21 -0.28 1.08 -0.18 1.39 -0.42 z" stroke-linecap="round"/>
</g>
		<g transform="matrix(0 14.205 -14.205 0 313.0928 -148.0654)" id="SVGRepo_iconCarrier">
<path style="stroke: none; stroke-width: 1; stroke-dasharray: none; stroke-linecap: butt; stroke-dashoffset: 0; stroke-linejoin: miter; stroke-miterlimit: 4; is-custom-font: none; font-file-url: none; fill: rgb(230,228,218); fill-rule: nonzero; opacity: 1;" vector-effect="non-scaling-stroke" transform=" translate(-21.5756, -12.6423)" d="m 15.05 20.05 s 3.41 -7.57 5.05 -10.23 s 2.72 -4.49 3.15 -4.56 s 4.75 0 4.82 0.27 s 0 7.32 0 7.32 s -1.24 0.9 -1.22 1.52 v 0.63 a 65.1 65.1 0 0 0 -11.8 5.05 z" stroke-linecap="round"/>
</g>
		<g transform="matrix(0 14.205 -14.205 0 302.2852 141.3687)" id="SVGRepo_iconCarrier">
<path style="stroke: none; stroke-width: 1; stroke-dasharray: none; stroke-linecap: butt; stroke-dashoffset: 0; stroke-linejoin: miter; stroke-miterlimit: 4; is-custom-font: none; font-file-url: none; fill: rgb(230,228,218); fill-rule: nonzero; opacity: 1;" vector-effect="non-scaling-stroke" transform=" translate(-41.951, -13.4031)" d="m 35.82 5.5 c 0.39 -0.4 4.87 -0.41 5.32 0 s 7 14.42 7.11 14.67 a 7.86 7.86 0 0 1 -0.1 1.44 a 14 14 0 0 0 -7.1 -5.11 c -4.4 -1.16 -5.4 -0.95 -5.4 -1.14 s 0.05 -9.73 0.17 -9.86 z" stroke-linecap="round"/>
</g>
		<g transform="matrix(0 14.205 -14.205 0 179.9769 -5.6628)" id="SVGRepo_iconCarrier">
<path style="stroke: none; stroke-width: 1; stroke-dasharray: none; stroke-linecap: butt; stroke-dashoffset: 0; stroke-linejoin: miter; stroke-miterlimit: 4; is-custom-font: none; font-file-url: none; fill: rgb(230,228,218); fill-rule: nonzero; opacity: 1;" vector-effect="non-scaling-stroke" transform=" translate(-31.6004, -22.0134)" d="m 29.06 14.14 a 6.59 6.59 0 0 1 2.74 -0.43 a 4 4 0 0 1 2.32 0.52 c 0.13 0.24 0.07 15.84 -0.24 15.91 s -4 0.39 -4.12 0 s -0.94 -15.68 -0.7 -16 z" stroke-linecap="round"/>
</g>
		<g transform="matrix(0 14.205 -14.205 0 99.5129 215.5234)" id="SVGRepo_iconCarrier">
<path style="stroke: none; stroke-width: 1; stroke-dasharray: none; stroke-linecap: butt; stroke-dashoffset: 0; stroke-linejoin: miter; stroke-miterlimit: 4; is-custom-font: none; font-file-url: none; fill: rgb(230,228,218); fill-rule: nonzero; opacity: 1;" vector-effect="non-scaling-stroke" transform=" translate(-47.1713, -27.6779)" d="m 51 18 s 1.68 -0.35 2.06 0 a 51.76 51.76 0 0 1 2.44 6.08 c 0 0.19 -0.3 10 -0.3 10 s -15.6 3.66 -15.79 3.42 s -0.79 -2 -0.48 -2.18 s 10 -7.89 10.21 -8.27 s 0.64 -5.26 0.76 -5.64 s 1.1 -3.41 1.1 -3.41 z" stroke-linecap="round"/>
</g>
		<g transform="matrix(0 14.205 -14.205 0 108.2894 -186.3578)" id="SVGRepo_iconCarrier">
<path style="stroke: none; stroke-width: 1; stroke-dasharray: none; stroke-linecap: butt; stroke-dashoffset: 0; stroke-linejoin: miter; stroke-miterlimit: 4; is-custom-font: none; font-file-url: none; fill: rgb(221,192,124); fill-rule: nonzero; opacity: 1;" vector-effect="non-scaling-stroke" transform=" translate(-18.8799, -27.06)" d="m 27.18 16.85 c 0.15 0 0.82 12 0.82 12 l -1.24 -1.72 s -0.45 0.34 -0.41 0.51 s 1.77 2.88 1.77 3 s -0.39 0.36 -0.61 0.56 a 2.13 2.13 0 0 1 -0.31 0.23 a 23.9 23.9 0 0 0 -2.08 -2.71 c -0.18 0 -0.47 0.3 -0.43 0.37 a 33.63 33.63 0 0 1 1.91 2.81 c -0.06 0.11 -0.85 0.83 -0.85 0.83 a 15.66 15.66 0 0 0 -1.69 -2.21 c -0.21 0 -0.5 0.36 -0.45 0.44 s 1.69 2.38 1.65 2.49 s -0.53 0.7 -0.53 0.7 a 22.85 22.85 0 0 0 -1.88 -2.3 c -0.14 0 -0.49 0.41 -0.42 0.51 s 1.81 2.34 1.82 2.4 s -0.41 0.76 -0.45 0.91 s -0.05 0.21 -0.05 0.21 a 36.84 36.84 0 0 0 -2.53 -3.16 c -0.14 0 -0.45 0.24 -0.41 0.36 s 2.58 3.76 2.58 3.76 a 8.9 8.9 0 0 1 -1.1 0.11 c -0.06 0 -2.69 -3.37 -2.76 -3.34 s -0.53 0.39 -0.53 0.47 s 2.31 3 2.23 3 a 9.77 9.77 0 0 1 -1.83 0.1 c -0.17 -0.1 -1.65 -2.32 -1.76 -2.32 s -0.49 0.31 -0.45 0.41 s 1.21 2 1.15 2 s -3.89 -0.32 -5.81 -0.57 s -2.91 -0.61 -2.89 -0.84 s 1.09 -7.19 3.11 -10.19 s 6 -5.42 8.37 -6.55 a 37.23 37.23 0 0 1 6.06 -2.27 z" stroke-linecap="round"/>
</g>
		<g transform="matrix(0 14.205 -14.205 0 -52.0168 -5.4953)" id="SVGRepo_iconCarrier">
<path style="stroke: none; stroke-width: 1; stroke-dasharray: none; stroke-linecap: butt; stroke-dashoffset: 0; stroke-linejoin: miter; stroke-miterlimit: 4; is-custom-font: none; font-file-url: none; fill: rgb(230,228,218); fill-rule: nonzero; opacity: 1;" vector-effect="non-scaling-stroke" transform=" translate(-31.6122, -38.3452)" d="m 31.53 31.47 c 3.47 0 6.22 2.75 6.4 7 s -2.84 6.59 -6.56 6.75 a 6 6 0 0 1 -6.05 -5.53 c -0.17 -2.44 0.09 -8.13 6.21 -8.22 z" stroke-linecap="round"/>
</g>
		<g transform="matrix(0 14.205 -14.205 0 -20.4586 -5.9764)" id="SVGRepo_iconCarrier">
<path style="stroke: none; stroke-width: 1; stroke-dasharray: none; stroke-linecap: butt; stroke-dashoffset: 0; stroke-linejoin: miter; stroke-miterlimit: 4; is-custom-font: none; font-file-url: none; fill: rgb(29,29,27); fill-rule: nonzero; opacity: 1;" vector-effect="non-scaling-stroke" transform=" translate(-31.5783, -36.1235)" d="m 31.1 33 c 2.5 -0.53 4 2.51 3.34 4.59 s -4.92 2.38 -5.65 0.3 s 0.35 -4.44 2.31 -4.89 z" stroke-linecap="round"/>
</g>
		<g transform="matrix(0 14.205 -14.205 0 -21.0531 -6.0789)" id="SVGRepo_iconCarrier">
<path style="stroke: none; stroke-width: 1; stroke-dasharray: none; stroke-linecap: butt; stroke-dashoffset: 0; stroke-linejoin: miter; stroke-miterlimit: 4; is-custom-font: none; font-file-url: none; fill: rgb(221,192,124); fill-rule: nonzero; opacity: 1;" vector-effect="non-scaling-stroke" transform=" translate(-31.5711, -36.1655)" d="m 31.22 33.88 c 1.83 -0.39 3 1.84 2.45 3.36 s -3.6 1.74 -4.14 0.22 a 2.7 2.7 0 0 1 1.69 -3.58 z" stroke-linecap="round"/>
</g>
		<g transform="matrix(0 14.205 -14.205 0 99.3472 -183.5797)" id="SVGRepo_iconCarrier">
<path style="stroke: none; stroke-width: 1; stroke-dasharray: none; stroke-linecap: butt; stroke-dashoffset: 0; stroke-linejoin: miter; stroke-miterlimit: 4; is-custom-font: none; font-file-url: none; fill: rgb(29,29,27); fill-rule: nonzero; opacity: 1;" vector-effect="non-scaling-stroke" transform=" translate(-19.0754, -27.6895)" d="m 17.36 24.38 a 4.19 4.19 0 0 1 5.15 1.46 a 3.46 3.46 0 0 1 -1.86 5.16 c -2.39 0.92 -5 0 -5.39 -2 a 3.85 3.85 0 0 1 2.1 -4.62 z" stroke-linecap="round"/>
</g>
		<g transform="matrix(0 14.205 -14.205 0 99.3865 -183.541)" id="SVGRepo_iconCarrier">
<path style="stroke: none; stroke-width: 1; stroke-dasharray: none; stroke-linecap: butt; stroke-dashoffset: 0; stroke-linejoin: miter; stroke-miterlimit: 4; is-custom-font: none; font-file-url: none; fill: rgb(230,228,218); fill-rule: nonzero; opacity: 1;" vector-effect="non-scaling-stroke" transform=" translate(-19.0782, -27.6868)" d="m 17.73 25.08 a 3.3 3.3 0 0 1 4.05 1.15 a 2.72 2.72 0 0 1 -1.46 4.06 c -1.88 0.73 -3.92 0 -4.24 -1.58 a 3 3 0 0 1 1.65 -3.63 z" stroke-linecap="round"/>
</g>
		<g transform="matrix(0 14.205 -14.205 0 130.3072 136.9507)" id="SVGRepo_iconCarrier">
<path style="stroke: none; stroke-width: 1; stroke-dasharray: none; stroke-linecap: butt; stroke-dashoffset: 0; stroke-linejoin: miter; stroke-miterlimit: 4; is-custom-font: none; font-file-url: none; fill: rgb(221,192,124); fill-rule: nonzero; opacity: 1;" vector-effect="non-scaling-stroke" transform=" translate(-41.64, -25.51)" d="m 43.17 19.36 a 27.7 27.7 0 0 0 -7.37 -2.42 c -0.12 0.25 -0.4 13.89 -0.4 13.89 a 6.82 6.82 0 0 1 1.51 0.72 a 7.16 7.16 0 0 1 1.55 2.53 l 3.86 -3 a 3.33 3.33 0 0 1 -3.46 -2.36 a 3.84 3.84 0 0 1 2.14 -4.6 a 4.21 4.21 0 0 1 5.16 1.46 a 3.73 3.73 0 0 1 0.52 2.13 c 0.3 -0.24 0.49 -0.41 0.51 -0.43 c 0.12 -0.19 0.69 -2.89 0.69 -2.89 a 11.23 11.23 0 0 0 -4.71 -5.03 z" stroke-linecap="round"/>
</g>
		<g transform="matrix(0 14.205 -14.205 0 103.0944 151.4255)" id="SVGRepo_iconCarrier">
<path style="stroke: none; stroke-width: 1; stroke-dasharray: none; stroke-linecap: butt; stroke-dashoffset: 0; stroke-linejoin: miter; stroke-miterlimit: 4; is-custom-font: none; font-file-url: none; fill: rgb(230,228,218); fill-rule: nonzero; opacity: 1;" vector-effect="non-scaling-stroke" transform=" translate(-42.6589, -27.4257)" d="m 41.32 24.83 a 3 3 0 0 0 -1.65 3.62 c 0.31 1.46 2.1 2.19 3.86 1.7 l 2 -1.58 a 2.77 2.77 0 0 0 -0.16 -2.6 a 3.31 3.31 0 0 0 -4.05 -1.14 z" stroke-linecap="round"/>
</g>
		<g transform="matrix(0 14.205 -14.205 0 -80.1503 -224.9346)" id="SVGRepo_iconCarrier">
<path style="stroke: none; stroke-width: 1; stroke-dasharray: none; stroke-linecap: butt; stroke-dashoffset: 0; stroke-linejoin: miter; stroke-miterlimit: 4; is-custom-font: none; font-file-url: none; fill: rgb(230,228,218); fill-rule: nonzero; opacity: 1;" vector-effect="non-scaling-stroke" transform=" translate(-16.164, -40.3258)" d="m 8.68 37.4 c 1 -0.14 5.55 1 9.06 1.13 s 5.91 0.07 5.91 0.16 s 0.12 1.62 0.12 1.62 s -13.94 3.07 -14.1 2.95 s -1.52 -5.79 -0.99 -5.86 z" stroke-linecap="round"/>
</g>
		<g transform="matrix(0 14.205 -14.205 0 -62.4171 209.2211)" id="SVGRepo_iconCarrier">
<path style="stroke: none; stroke-width: 1; stroke-dasharray: none; stroke-linecap: butt; stroke-dashoffset: 0; stroke-linejoin: miter; stroke-miterlimit: 4; is-custom-font: none; font-file-url: none; fill: rgb(230,228,218); fill-rule: nonzero; opacity: 1;" vector-effect="non-scaling-stroke" transform=" translate(-46.7276, -39.0773)" d="m 39.5 39 c 0.31 0 14.38 -2.89 14.48 -2.64 a 28.69 28.69 0 0 1 0 3.56 a 3.86 3.86 0 0 1 -0.56 1.89 s -14 -1 -14 -1.09 s 0.08 -1.72 0.08 -1.72 z" stroke-linecap="round"/>
</g>
		<g transform="matrix(0 14.205 -14.205 0 -153.2246 199.5955)" id="SVGRepo_iconCarrier">
<path style="stroke: none; stroke-width: 1; stroke-dasharray: none; stroke-linecap: butt; stroke-dashoffset: 0; stroke-linejoin: miter; stroke-miterlimit: 4; is-custom-font: none; font-file-url: none; fill: rgb(230,228,218); fill-rule: nonzero; opacity: 1;" vector-effect="non-scaling-stroke" transform=" translate(-46.05, -45.47)" d="m 39.31 41.81 c 0.15 0 13.59 1.39 13.56 1.57 s -1 2.12 -1.35 2.78 a 5.15 5.15 0 0 1 -0.91 1.18 a 12.42 12.42 0 0 0 -0.68 -2.46 c -0.18 0 -0.84 0.17 -0.74 0.42 s 0.68 2.86 0.69 3 a 5.07 5.07 0 0 1 -0.7 0.83 a 1.43 1.43 0 0 1 -0.32 -0.31 c -0.07 -0.12 -0.9 -4.33 -1 -4.39 s -0.82 -0.29 -0.81 0 s 0.76 3.7 0.63 3.67 s -1.68 -1.23 -1.68 -1.23 s 0 -2.69 -0.3 -2.87 s -0.79 -0.36 -0.79 -0.24 s 0.11 2.35 0.11 2.35 l -1.24 -1 s 0.13 -1.38 -0.06 -1.5 s -1 -0.38 -1 -0.29 s -0.16 1 -0.16 1 s -3.29 -1.87 -3.33 -2 a 1.74 1.74 0 0 1 0.08 -0.51 z" stroke-linecap="round"/>
</g>
		<g transform="matrix(0 14.205 -14.205 0 -162.6562 -199.3074)" id="SVGRepo_iconCarrier">
<path style="stroke: none; stroke-width: 1; stroke-dasharray: none; stroke-linecap: butt; stroke-dashoffset: 0; stroke-linejoin: miter; stroke-miterlimit: 4; is-custom-font: none; font-file-url: none; fill: rgb(230,228,218); fill-rule: nonzero; opacity: 1;" vector-effect="non-scaling-stroke" transform=" translate(-17.9681, -46.1339)" d="m 14.76 50.59 a 20.11 20.11 0 0 1 -2.6 -3.48 c -0.65 -1.36 -1.08 -2.54 -0.87 -2.64 s 12.71 -2.88 12.82 -2.79 a 11.74 11.74 0 0 1 0.59 1.18 a 14.08 14.08 0 0 1 -1.7 1.53 c 0 -0.12 -0.84 -1.45 -1 -1.41 s -0.46 0.16 -0.43 0.29 s 0.82 1.57 0.82 1.57 s -0.77 0.8 -0.87 0.68 a 24.76 24.76 0 0 0 -1.52 -2.22 c -0.13 0 -0.46 0.41 -0.46 0.41 a 15.31 15.31 0 0 1 1.2 2.36 a 5.85 5.85 0 0 1 -0.95 0.64 a 17.36 17.36 0 0 0 -1.93 -2.59 c -0.25 0 -0.81 0.18 -0.77 0.46 s 1.71 2.71 1.61 2.78 l -0.8 0.54 s -2 -3.11 -2.15 -3.11 a 4.74 4.74 0 0 0 -0.81 0.39 s 2.06 3.33 2.06 3.43 a 8.77 8.77 0 0 1 -0.71 0.58 a 36.9 36.9 0 0 0 -2.67 -3.7 c -0.15 0.1 -0.68 0.29 -0.61 0.42 s 2.45 4 2.45 4 z" stroke-linecap="round"/>
</g>
		<g transform="matrix(0 14.205 -14.205 0 -238.693 -1.6245)" id="SVGRepo_iconCarrier">
<path style="stroke: none; stroke-width: 1; stroke-dasharray: none; stroke-linecap: butt; stroke-dashoffset: 0; stroke-linejoin: miter; stroke-miterlimit: 4; is-custom-font: none; font-file-url: none; fill: rgb(221,192,124); fill-rule: nonzero; opacity: 1;" vector-effect="non-scaling-stroke" transform=" translate(-31.8846, -51.4868)" d="m 25.77 44.53 s 1.61 2.4 5.7 2.19 a 9.74 9.74 0 0 0 6.53 -3.22 l 7.09 4.29 c 2.05 1.24 3.3 2.84 3.28 3.31 s -6.03 7.9 -17.24 8.35 s -15.81 -5.68 -15.73 -6.45 s 9.77 -8.74 10.37 -8.47 z" stroke-linecap="round"/>
</g>
		<g transform="matrix(0 14.205 -14.205 0 -219.3667 -11.2699)" id="SVGRepo_iconCarrier">
<path style="stroke: none; stroke-width: 1; stroke-dasharray: none; stroke-linecap: butt; stroke-dashoffset: 0; stroke-linejoin: miter; stroke-miterlimit: 4; is-custom-font: none; font-file-url: none; fill: rgb(29,29,27); fill-rule: nonzero; opacity: 1;" vector-effect="non-scaling-stroke" transform=" translate(-31.2056, -50.1263)" d="m 31.36 47.66 a 2.46 2.46 0 0 1 2.35 3.42 c -0.77 2.08 -4.15 1.9 -5 0.23 a 2.64 2.64 0 0 1 2.65 -3.65 z" stroke-linecap="round"/>
</g>
		<g transform="matrix(0 14.205 -14.205 0 -219.4463 -11.0909)" id="SVGRepo_iconCarrier">
<path style="stroke: none; stroke-width: 1; stroke-dasharray: none; stroke-linecap: butt; stroke-dashoffset: 0; stroke-linejoin: miter; stroke-miterlimit: 4; is-custom-font: none; font-file-url: none; fill: rgb(146,160,209); fill-rule: nonzero; opacity: 1;" vector-effect="non-scaling-stroke" transform=" translate(-31.2181, -50.1319)" d="m 31.31 48.46 a 1.67 1.67 0 0 1 1.59 2.32 c -0.52 1.41 -2.81 1.28 -3.36 0.15 a 1.79 1.79 0 0 1 1.77 -2.47 z" stroke-linecap="round"/>
</g>
		<g transform="matrix(0 14.205 -14.205 0 -299.3704 -11.1086)" id="SVGRepo_iconCarrier">
<path style="stroke: none; stroke-width: 1; stroke-dasharray: none; stroke-linecap: butt; stroke-dashoffset: 0; stroke-linejoin: miter; stroke-miterlimit: 4; is-custom-font: none; font-file-url: none; fill: rgb(29,29,27); fill-rule: nonzero; opacity: 1;" vector-effect="non-scaling-stroke" transform=" translate(-31.2169, -55.7583)" d="m 31.32 53.76 a 2 2 0 0 1 1.9 2.77 c -0.62 1.68 -3.36 1.54 -4 0.18 a 2.14 2.14 0 0 1 2.1 -2.95 z" stroke-linecap="round"/>
</g>
		<g transform="matrix(0 14.205 -14.205 0 -299.3789 -11.2901)" id="SVGRepo_iconCarrier">
<path style="stroke: none; stroke-width: 1; stroke-dasharray: none; stroke-linecap: butt; stroke-dashoffset: 0; stroke-linejoin: miter; stroke-miterlimit: 4; is-custom-font: none; font-file-url: none; fill: rgb(231,65,62); fill-rule: nonzero; opacity: 1;" vector-effect="non-scaling-stroke" transform=" translate(-31.2042, -55.7589)" d="m 31.27 54.54 a 1.22 1.22 0 0 1 1.16 1.69 a 1.43 1.43 0 0 1 -2.45 0.11 a 1.31 1.31 0 0 1 1.29 -1.8 z" stroke-linecap="round"/>
</g>
		<g transform="matrix(0 14.205 -14.205 0 -197.4119 91.137)" id="SVGRepo_iconCarrier">
<path style="stroke: none; stroke-width: 1; stroke-dasharray: none; stroke-linecap: butt; stroke-dashoffset: 0; stroke-linejoin: miter; stroke-miterlimit: 4; is-custom-font: none; font-file-url: none; fill: rgb(29,29,27); fill-rule: nonzero; opacity: 1;" vector-effect="non-scaling-stroke" transform=" translate(-38.4148, -48.5807)" d="m 38.52 46.58 a 2 2 0 0 1 1.9 2.77 c -0.62 1.69 -3.36 1.54 -4 0.19 a 2.14 2.14 0 0 1 2.1 -2.96 z" stroke-linecap="round"/>
</g>
		<g transform="matrix(0 14.205 -14.205 0 -197.4521 90.9862)" id="SVGRepo_iconCarrier">
<path style="stroke: none; stroke-width: 1; stroke-dasharray: none; stroke-linecap: butt; stroke-dashoffset: 0; stroke-linejoin: miter; stroke-miterlimit: 4; is-custom-font: none; font-file-url: none; fill: rgb(230,228,218); fill-rule: nonzero; opacity: 1;" vector-effect="non-scaling-stroke" transform=" translate(-38.4041, -48.5836)" d="m 38.47 47.37 a 1.21 1.21 0 0 1 1.16 1.68 a 1.43 1.43 0 0 1 -2.45 0.11 a 1.3 1.3 0 0 1 1.29 -1.79 z" stroke-linecap="round"/>
</g>
		<g transform="matrix(0 14.205 -14.205 0 -199.8449 -96.8676)" id="SVGRepo_iconCarrier">
<path style="stroke: none; stroke-width: 1; stroke-dasharray: none; stroke-linecap: butt; stroke-dashoffset: 0; stroke-linejoin: miter; stroke-miterlimit: 4; is-custom-font: none; font-file-url: none; fill: rgb(29,29,27); fill-rule: nonzero; opacity: 1;" vector-effect="non-scaling-stroke" transform=" translate(-25.1798, -48.752)" d="m 25.27 46.75 a 2 2 0 0 1 1.91 2.78 c -0.63 1.68 -3.37 1.53 -4 0.18 a 2.15 2.15 0 0 1 2.09 -2.96 z" stroke-linecap="round"/>
</g>
		<g transform="matrix(0 14.205 -14.205 0 -199.9366 -97.2305)" id="SVGRepo_iconCarrier">
<path style="stroke: none; stroke-width: 1; stroke-dasharray: none; stroke-linecap: butt; stroke-dashoffset: 0; stroke-linejoin: miter; stroke-miterlimit: 4; is-custom-font: none; font-file-url: none; fill: rgb(230,228,218); fill-rule: nonzero; opacity: 1;" vector-effect="non-scaling-stroke" transform=" translate(-25.1542, -48.7584)" d="m 25.22 47.54 a 1.21 1.21 0 0 1 1.16 1.69 a 1.43 1.43 0 0 1 -2.45 0.11 a 1.3 1.3 0 0 1 1.29 -1.8 z" stroke-linecap="round"/>
</g>
		<g transform="matrix(0 14.205 -14.205 0 -270.1544 -126.1663)" id="SVGRepo_iconCarrier">
<path style="stroke: none; stroke-width: 1; stroke-dasharray: none; stroke-linecap: butt; stroke-dashoffset: 0; stroke-linejoin: miter; stroke-miterlimit: 4; is-custom-font: none; font-file-url: none; fill: rgb(29,29,27); fill-rule: nonzero; opacity: 1;" vector-effect="non-scaling-stroke" transform=" translate(-23.1171, -53.7016)" d="m 23.21 51.7 a 2 2 0 0 1 1.91 2.78 c -0.63 1.68 -3.36 1.53 -4 0.18 a 2.14 2.14 0 0 1 2.09 -2.96 z" stroke-linecap="round"/>
</g>
		<g transform="matrix(0 14.205 -14.205 0 -270.2325 -126.451)" id="SVGRepo_iconCarrier">
<path style="stroke: none; stroke-width: 1; stroke-dasharray: none; stroke-linecap: butt; stroke-dashoffset: 0; stroke-linejoin: miter; stroke-miterlimit: 4; is-custom-font: none; font-file-url: none; fill: rgb(230,228,218); fill-rule: nonzero; opacity: 1;" vector-effect="non-scaling-stroke" transform=" translate(-23.0972, -53.7071)" d="m 23.16 52.49 a 1.21 1.21 0 0 1 1.16 1.68 a 1.42 1.42 0 0 1 -2.44 0.12 a 1.3 1.3 0 0 1 1.28 -1.8 z" stroke-linecap="round"/>
</g>
		<g transform="matrix(0 14.205 -14.205 0 -266.5903 117.4163)" id="SVGRepo_iconCarrier">
<path style="stroke: none; stroke-width: 1; stroke-dasharray: none; stroke-linecap: butt; stroke-dashoffset: 0; stroke-linejoin: miter; stroke-miterlimit: 4; is-custom-font: none; font-file-url: none; fill: rgb(29,29,27); fill-rule: nonzero; opacity: 1;" vector-effect="non-scaling-stroke" transform=" translate(-40.2648, -53.4507)" d="m 40.37 51.45 a 2 2 0 0 1 1.9 2.77 c -0.62 1.69 -3.36 1.54 -4 0.19 a 2.14 2.14 0 0 1 2.1 -2.96 z" stroke-linecap="round"/>
</g>
		<g transform="matrix(0 14.205 -14.205 0 -266.686 117.1323)" id="SVGRepo_iconCarrier">
<path style="stroke: none; stroke-width: 1; stroke-dasharray: none; stroke-linecap: butt; stroke-dashoffset: 0; stroke-linejoin: miter; stroke-miterlimit: 4; is-custom-font: none; font-file-url: none; fill: rgb(230,228,218); fill-rule: nonzero; opacity: 1;" vector-effect="non-scaling-stroke" transform=" translate(-40.2448, -53.4575)" d="m 40.32 52.24 a 1.21 1.21 0 0 1 1.16 1.68 a 1.43 1.43 0 0 1 -2.48 0.08 a 1.3 1.3 0 0 1 1.32 -1.76 z" stroke-linecap="round"/>
</g>
		<g transform="matrix(0 14.205 -14.205 0 197.149 -151.4818)" id="SVGRepo_iconCarrier">
<path style="stroke: none; stroke-width: 1; stroke-dasharray: none; stroke-linecap: butt; stroke-dashoffset: 0; stroke-linejoin: miter; stroke-miterlimit: 4; is-custom-font: none; font-file-url: none; fill: rgb(29,29,27); fill-rule: nonzero; opacity: 1;" vector-effect="non-scaling-stroke" transform=" translate(-21.335, -20.8044)" d="m 18.81 21.91 a 7.41 7.41 0 0 1 2.5 -1.61 c 2 -0.95 2.22 -1.14 2.32 -1 a 2.1 2.1 0 0 1 0.23 0.75 c 0 0.12 -1.55 0.5 -2.6 1.17 a 4.38 4.38 0 0 0 -1.32 1.13 s -1.1 -0.25 -1.13 -0.44 z" stroke-linecap="round"/>
</g>
		<g transform="matrix(0 14.205 -14.205 0 324.44 -128.8093)" id="SVGRepo_iconCarrier">
<path style="stroke: none; stroke-width: 1; stroke-dasharray: none; stroke-linecap: butt; stroke-dashoffset: 0; stroke-linejoin: miter; stroke-miterlimit: 4; is-custom-font: none; font-file-url: none; fill: rgb(29,29,27); fill-rule: nonzero; opacity: 1;" vector-effect="non-scaling-stroke" transform=" translate(-22.931, -11.8434)" d="m 22.47 9.55 a 2.32 2.32 0 0 1 2.74 2.95 c -0.52 2 -3.49 2.07 -4.23 1.05 a 2.65 2.65 0 0 1 1.49 -4 z" stroke-linecap="round"/>
</g>
		<g transform="matrix(0 14.205 -14.205 0 324.4736 -128.5593)" id="SVGRepo_iconCarrier">
<path style="stroke: none; stroke-width: 1; stroke-dasharray: none; stroke-linecap: butt; stroke-dashoffset: 0; stroke-linejoin: miter; stroke-miterlimit: 4; is-custom-font: none; font-file-url: none; fill: rgb(221,192,124); fill-rule: nonzero; opacity: 1;" vector-effect="non-scaling-stroke" transform=" translate(-22.9488, -11.8412)" d="m 22.59 10.19 a 1.66 1.66 0 0 1 2 2.12 a 1.91 1.91 0 0 1 -3.05 0.76 a 1.91 1.91 0 0 1 1.05 -2.88 z" stroke-linecap="round"/>
</g>
		<g transform="matrix(0 14.205 -14.205 0 327.5841 115.7951)" id="SVGRepo_iconCarrier">
<path style="stroke: none; stroke-width: 1; stroke-dasharray: none; stroke-linecap: butt; stroke-dashoffset: 0; stroke-linejoin: miter; stroke-miterlimit: 4; is-custom-font: none; font-file-url: none; fill: rgb(29,29,27); fill-rule: nonzero; opacity: 1;" vector-effect="non-scaling-stroke" transform=" translate(-40.1506, -11.6222)" d="m 39.68 9.33 a 2.32 2.32 0 0 1 2.75 2.95 c -0.52 2 -3.49 2.07 -4.23 1.05 a 2.65 2.65 0 0 1 1.48 -4 z" stroke-linecap="round"/>
</g>
		<g transform="matrix(0 14.205 -14.205 0 327.3523 116.3354)" id="SVGRepo_iconCarrier">
<path style="stroke: none; stroke-width: 1; stroke-dasharray: none; stroke-linecap: butt; stroke-dashoffset: 0; stroke-linejoin: miter; stroke-miterlimit: 4; is-custom-font: none; font-file-url: none; fill: rgb(221,192,124); fill-rule: nonzero; opacity: 1;" vector-effect="non-scaling-stroke" transform=" translate(-40.1888, -11.6385)" d="m 39.81 10 a 1.67 1.67 0 0 1 2 2.13 a 1.92 1.92 0 0 1 -3 0.76 a 1.92 1.92 0 0 1 1 -2.89 z" stroke-linecap="round"/>
</g>
		<g transform="matrix(0 14.205 -14.205 0 149.4657 268.6289)" id="SVGRepo_iconCarrier">
<path style="stroke: none; stroke-width: 1; stroke-dasharray: none; stroke-linecap: butt; stroke-dashoffset: 0; stroke-linejoin: miter; stroke-miterlimit: 4; is-custom-font: none; font-file-url: none; fill: rgb(29,29,27); fill-rule: nonzero; opacity: 1;" vector-effect="non-scaling-stroke" transform=" translate(-50.9099, -24.1613)" d="m 50.79 22.2 a 1 1 0 0 1 0.78 0.14 c 0.07 0.13 -0.26 3.76 -0.26 3.76 s -1 0.11 -1.07 0 a 35 35 0 0 1 0.55 -3.9 z" stroke-linecap="round"/>
</g>
</g>
</g>
</svg>