<svg xmlns="http://www.w3.org/2000/svg" xmlns:xlink="http://www.w3.org/1999/xlink" version="1.1" width="1000" height="1000" viewBox="0 0 1000 1000" xml:space="preserve">
<desc>Created with Fabric.js 3.5.0</desc>
<defs>
</defs>
<rect x="0" y="0" width="100%" height="100%" fill="none"/>
<g transform="matrix(0 -0.9091 0.9091 0 500 500)" id="382751">
<g style="" vector-effect="non-scaling-stroke">
		<g transform="matrix(1 0 0 1 -450 -450)">
<rect style="stroke: none; stroke-width: 1; stroke-dasharray: none; stroke-linecap: butt; stroke-dashoffset: 0; stroke-linejoin: miter; stroke-miterlimit: 4; is-custom-font: none; font-file-url: none; fill: none; fill-rule: nonzero; opacity: 1;" x="-50" y="-50" rx="0" ry="0" width="100" height="100"/>
</g>
		<g transform="matrix(-1.759 -1.7676 1.7676 -1.759 149.5793 0.0057)" id="380480">
<path style="stroke: none; stroke-width: 1; stroke-dasharray: none; stroke-linecap: butt; stroke-dashoffset: 0; stroke-linejoin: miter; stroke-miterlimit: 4; is-custom-font: none; font-file-url: none; fill: rgb(0,0,0); fill-rule: nonzero; opacity: 1;" vector-effect="non-scaling-stroke" transform=" translate(-112.7328, -112.7315)" d="M 204.459 21.359 c -28.008 -28.008 -73.58 -28.008 -101.588 0 C 84.726 39.505 78.352 65.021 83.719 88.359 L 2.197 169.881 c -2.929 2.93 -2.929 7.678 0 10.607 c 1.465 1.464 3.385 2.196 5.304 2.196 s 3.839 -0.732 5.304 -2.196 l 48.405 -48.405 l 14.721 6.491 l -27.772 27.772 c -2.929 2.93 -2.929 7.678 0 10.607 c 1.465 1.464 3.385 2.196 5.304 2.196 s 3.839 -0.732 5.304 -2.196 l 27.908 -27.908 l 6.622 14.59 l -48.672 48.672 c -2.929 2.93 -2.929 7.678 0 10.607 c 1.465 1.464 3.385 2.196 5.304 2.196 s 3.839 -0.732 5.304 -2.196 l 81.079 -81.079 c 5.692 1.408 11.523 2.117 17.356 2.117 c 18.395 0 36.79 -7.002 50.794 -21.006 C 232.467 94.94 232.467 49.367 204.459 21.359 z M 104.625 152.306 l -5.558 -12.246 c -2.808 -6.188 -7.778 -11.106 -13.998 -13.849 l -12.484 -5.504 l 16.708 -16.708 c 3.378 6.842 7.89 13.262 13.577 18.949 c 5.425 5.425 11.514 9.786 18.002 13.11 L 104.625 152.306 z M 184.897 103.383 L 184.897 103.383 c -8.343 8.343 -19.434 12.937 -31.231 12.937 s -22.889 -4.594 -31.23 -12.937 c -17.22 -17.22 -17.22 -45.24 0 -62.461 c 8.342 -8.342 19.433 -12.936 31.23 -12.936 s 22.889 4.594 31.231 12.936 C 202.115 58.143 202.115 86.163 184.897 103.383 z M 174.289 51.528 c 11.372 11.373 11.372 29.877 0 41.248 c -5.509 5.51 -12.833 8.543 -20.624 8.543 s -15.115 -3.033 -20.623 -8.543 c -11.372 -11.372 -11.372 -29.875 0 -41.248 c 5.508 -5.509 12.832 -8.542 20.623 -8.542 S 168.781 46.02 174.289 51.528 z" stroke-linecap="round"/>
</g>
</g>
</g>
</svg>