<svg xmlns="http://www.w3.org/2000/svg" xmlns:xlink="http://www.w3.org/1999/xlink" version="1.1" width="1000" height="1000" viewBox="0 0 1000 1000" xml:space="preserve">
<desc>Created with Fabric.js 3.5.0</desc>
<defs>
</defs>
<rect x="0" y="0" width="100%" height="100%" fill="none"/>
<g transform="matrix(0 0.9091 -0.9091 0 499.9955 500.0045)" id="601734">
<g style="" vector-effect="non-scaling-stroke">
		<g transform="matrix(1 0 0 1 -450 -450)">
<rect style="stroke: none; stroke-width: 1; stroke-dasharray: none; stroke-linecap: butt; stroke-dashoffset: 0; stroke-linejoin: miter; stroke-miterlimit: 4; is-custom-font: none; font-file-url: none; fill: none; fill-rule: nonzero; opacity: 1;" x="-50" y="-50" rx="0" ry="0" width="100" height="100"/>
</g>
		<g transform="matrix(-1.3108 1.329 -1.329 -1.3108 329.6651 -0.0005)" id="974112">
<path style="stroke: none; stroke-width: 1; stroke-dasharray: none; stroke-linecap: butt; stroke-dashoffset: 0; stroke-linejoin: miter; stroke-miterlimit: 4; is-custom-font: none; font-file-url: none; fill: rgb(0,0,0); fill-rule: nonzero; opacity: 1;" vector-effect="non-scaling-stroke" transform=" translate(-256.0021, -256.0032)" d="M 61 16 L 16 61 l 195 180 l 195 165 l -165 -195 L 61 16 z m 314.97 240 c -21.068 0.066 -42.135 5.635 -60.876 16.656 l 45.406 45.406 c 10.03 -2.64 20.587 -2.446 30.594 0.157 l 45.75 -45.75 v -0.064 c -18.757 -11.03 -39.81 -16.472 -60.875 -16.406 z m -103.314 59.156 c -22.027 37.48 -22.31 84.238 -0.25 121.75 l 45.75 -45.75 c -2.56 -10.002 -2.73 -20.594 -0.094 -30.625 l -45.406 -45.374 z m 206.938 0 l -45.75 45.75 c 2.556 10.007 2.73 20.565 0.094 30.594 l 45.406 45.406 c 22.03 -37.48 22.312 -84.24 0.25 -121.75 z M 360.906 433.844 l -45.75 45.75 c 37.514 22.06 84.27 21.788 121.75 -0.25 L 391.5 433.938 V 434 c -10.03 2.64 -20.592 2.45 -30.594 -0.156 z" stroke-linecap="round"/>
</g>
</g>
</g>
</svg>